# xmcd
#
# Track frame offsets: 
#        150
#        26120
#        50022
#
# Disc length: 926 seconds
#
# Revision: 1
# Processed by: cddbd v1.5.2PL0 Copyright (c) Steve Scherf et al.
# Submitted via: ExactAudioCopyFreeDBPlugin 1.0
#
DISCID=23039c03
DTITLE=Babyface - It´s No Crime [CDS Germany)
DYEAR=1989
DGENRE=Funk
TTITLE0=It´S No Crime (Extended Radio Mix)
TTITLE1=It´S No Crime (Cussapella)
TTITLE2=It´S No Crime (Instrumental)
EXTD=
EXTT0=
EXTT1=
EXTT2=
PLAYORDER=
